<?xml version="1.0" encoding="UTF-8" standalone="no"?>
<svg
   xmlns:dc="http://purl.org/dc/elements/1.1/"
   xmlns:cc="http://creativecommons.org/ns#"
   xmlns:rdf="http://www.w3.org/1999/02/22-rdf-syntax-ns#"
   xmlns:svg="http://www.w3.org/2000/svg"
   xmlns="http://www.w3.org/2000/svg"
   xmlns:sodipodi="http://sodipodi.sourceforge.net/DTD/sodipodi-0.dtd"
   xmlns:inkscape="http://www.inkscape.org/namespaces/inkscape"
   id="Calque_1"
   data-name="Calque 1"
   viewBox="0 0 300.5369 991.30565"
   version="1.1"
   sodipodi:docname="bandeau_fun_vertical.svg"
   width="300.5369"
   height="991.30566"
   inkscape:version="0.92.4 (5da689c313, 2019-01-14)">
  <metadata
     id="metadata36">
    <rdf:RDF>
      <cc:Work
         rdf:about="">
        <dc:format>image/svg+xml</dc:format>
        <dc:type
           rdf:resource="http://purl.org/dc/dcmitype/StillImage" />
      </cc:Work>
    </rdf:RDF>
  </metadata>
  <sodipodi:namedview
     pagecolor="#ffffff"
     bordercolor="#666666"
     borderopacity="1"
     objecttolerance="10"
     gridtolerance="10"
     guidetolerance="10"
     inkscape:pageopacity="0"
     inkscape:pageshadow="2"
     inkscape:window-width="1920"
     inkscape:window-height="1016"
     id="namedview34"
     showgrid="false"
     inkscape:zoom="0.65434341"
     inkscape:cx="279.32006"
     inkscape:cy="390.09609"
     inkscape:window-x="1920"
     inkscape:window-y="27"
     inkscape:window-maximized="1"
     inkscape:current-layer="Calque_1" />
  <defs
     id="defs4">
    <style
       id="style2">.cls-1{fill:#f0c431;}.cls-2{fill:#f09989;}.cls-3{fill:none;}.cls-4{fill:#87d2e8;}.cls-5{fill:#ebd1b2;}.cls-6{fill:#10335d;}.cls-7{fill:#def2fa;}</style>
  </defs>
  <path
     id="Tracé_65"
     data-name="Tracé 65"
     class="cls-1"
     d="m 122.52255,440.42321 a 21.24,21.24 0 0 1 -38.580005,12.29 l -79.6499986,-112.58 a 21.24,21.24 0 0 1 34.6799986,-24.49 l 79.650005,112.59 a 21.27,21.27 0 0 1 3.9,12.19 z"
     style="opacity:0.5;fill:#f0c431"
     inkscape:connector-curvature="0" />
  <path
     id="Tracé_66"
     data-name="Tracé 66"
     class="cls-2"
     d="m 612.84161,864.04915 a 21.24,21.24 0 0 1 -39,11.6 v 0 l -90.34,-139.14 a 21.242571,21.242571 0 1 1 35.48,-23.37 l 0.16,0.24 90.28,139.13 a 21,21 0 0 1 3.42,11.54 z"
     style="opacity:0.5;fill:#f09989"
     inkscape:connector-curvature="0" />
  <g
     id="Ellipse_4"
     data-name="Ellipse 4"
     transform="translate(-215.17177,-603.18339)"
     style="opacity:0.5">
    <circle
       id="Ellipse_24"
       data-name="Ellipse 24"
       class="cls-3"
       cx="218.27"
       cy="773.03998"
       r="65.330002"
       style="fill:none" />
    <path
       id="Tracé_67"
       data-name="Tracé 67"
       class="cls-4"
       d="M 270,707.5 A 65.33,65.33 0 1 1 204.68,642.18 65.4,65.4 0 0 1 270,707.5 Z m -88.14,0 a 22.84,22.84 0 1 0 22.83,-22.84 22.84,22.84 0 0 0 -22.83,22.84 z"
       transform="translate(78.9,65.54)"
       style="fill:#87d2e8"
       inkscape:connector-curvature="0" />
  </g>
  <g
     id="Ellipse_6"
     data-name="Ellipse 6"
     transform="translate(-26.785671,232.90601)"
     style="opacity:0.5">
    <circle
       id="Ellipse_25"
       data-name="Ellipse 25"
       class="cls-3"
       cx="136.48"
       cy="367.32999"
       r="65.330002"
       style="fill:none" />
    <path
       id="Tracé_68"
       data-name="Tracé 68"
       class="cls-2"
       d="m 122.89,301.79 a 65.33,65.33 0 1 1 -65.32,-65.33 65.39,65.39 0 0 1 65.32,65.33 z m -88.14,0 A 22.84,22.84 0 1 0 57.58,279 22.85,22.85 0 0 0 34.75,301.84 Z"
       transform="translate(78.9,65.54)"
       style="fill:#f09989"
       inkscape:connector-curvature="0" />
  </g>
  <path
     id="Tracé_69"
     data-name="Tracé 69"
     class="cls-5"
     d="m -17.573641,582.77262 a 21.22,21.22 0 0 1 -6.53,15.31 l -81.789999,78.56 a 21.23,21.23 0 0 1 -30,-0.6 21.23,21.23 0 0 1 0.6,-30 l 81.759999,-78.59 a 21.24,21.24 0 0 1 36,15.32 z"
     style="opacity:0.5;fill:#ebd1b2"
     inkscape:connector-curvature="0" />
  <path
     id="Tracé_70"
     data-name="Tracé 70"
     class="cls-6"
     d="m 126.08255,743.71956 a 21.22,21.22 0 0 1 -6.53,15.32 l -81.790007,78.59 a 21.24,21.24 0 0 1 -29.429999,-30.63 l 81.750002,-78.59 a 21.24,21.24 0 0 1 36.000004,15.32 z"
     style="opacity:0.5;fill:#10335d"
     inkscape:connector-curvature="0" />
  <circle
     id="Ellipse_5"
     data-name="Ellipse 5"
     class="cls-7"
     cx="211.56924"
     cy="842.04028"
     r="61.599998"
     style="opacity:0.5;fill:#def2fa" />
  <circle
     id="Ellipse_5-2"
     data-name="Ellipse 5-2"
     class="cls-7"
     cx="-419.08899"
     cy="575.80774"
     r="61.599998"
     style="opacity:0.5;fill:#def2fa" />
  <circle
     id="Ellipse_7"
     data-name="Ellipse 7"
     class="cls-7"
     cx="-88.733643"
     cy="62.96262"
     r="61.599998"
     style="opacity:0.5;fill:#def2fa" />
  <path
     id="Tracé_66-2"
     data-name="Tracé 66-2"
     class="cls-2"
     d="m 178.69323,76.376434 a 21.24,21.24 0 0 1 -39.05,11.599996 v 0 L 49.353223,-51.163564 a 21.242571,21.242571 0 1 1 35.479999,-23.37 l 0.16,0.24 90.280008,139.129998 a 21,21 0 0 1 3.42,11.54 z"
     style="opacity:0.5;fill:#f09989"
     inkscape:connector-curvature="0" />
  <path
     id="Tracé_69-2"
     data-name="Tracé 69-2"
     class="cls-5"
     d="m 256.94889,220.8883 a 21.16,21.16 0 0 1 -6.53,15.32 l -81.78,78.59 a 21.242119,21.242119 0 1 1 -29.44,-30.63 l 81.79,-78.59 a 21.24,21.24 0 0 1 36,15.31 z"
     style="opacity:0.5;fill:#ebd1b2"
     inkscape:connector-curvature="0" />
  <circle
     id="Ellipse_5-3"
     data-name="Ellipse 5-3"
     class="cls-7"
     cx="219.84636"
     cy="451.42819"
     r="61.599998"
     style="opacity:0.5;fill:#def2fa" />
  <path
     id="Tracé_66-2-3"
     data-name="Tracé 66-2"
     class="cls-2"
     d="m 178.69324,1067.6767 a 21.24,21.24 0 0 1 -39.05001,11.5999 v 0 L 49.353228,940.13674 a 21.242571,21.242571 0 1 1 35.480001,-23.37 l 0.16,0.24 90.280011,139.12996 a 21,21 0 0 1 3.42,11.54 z"
     style="opacity:0.5;fill:#f09989"
     inkscape:connector-curvature="0" />
</svg>
